Coordinates
version=1
nRows=65
nColumns=12
inDegrees=yes

Units are S.I. units (second, meters, Newtons, ...)
Angles are in degrees

endheader
time	SC_y	SC_z	SC_x	AC_y	AC_z	AC_x	GH_y	GH_z	GH_yy	EL_x	PS_y
       0.0              -53.82        0.07957          8.552          41.15         -5.689         -8.567          173.8          84.06          106.6          65.45          70.03
   0.04677              -53.81         0.0808           8.56          41.15         -5.689         -8.566          173.8          84.06          106.6          65.44          70.04
   0.09353              -53.81        0.08211          8.568          41.15         -5.689         -8.564          173.8          84.06          106.6          65.43          70.04
    0.1403               -53.8        0.08351          8.577          41.16         -5.688         -8.563          173.8          84.06          106.6          65.42          70.05
    0.1871              -53.79        0.08499          8.586          41.16         -5.688         -8.561          173.7          84.05          106.6          65.41          70.06
    0.2338              -53.79        0.08657          8.596          41.16         -5.688          -8.56          173.7          84.05          106.6           65.4          70.06
    0.2806              -53.78        0.08826          8.606          41.16         -5.687         -8.558          173.7          84.05          106.6          65.39          70.07
    0.3274              -53.77        0.09007          8.618          41.16         -5.687         -8.556          173.7          84.05          106.6          65.38          70.08
    0.3741              -53.76          0.092           8.63          41.16         -5.686         -8.554          173.7          84.05          106.6          65.36          70.08
    0.4209              -53.75        0.09408          8.643          41.17         -5.686         -8.552          173.7          84.05          106.6          65.35          70.09
    0.4677              -53.74        0.09631          8.657          41.17         -5.685          -8.55          173.6          84.05          106.6          65.33           70.1
    0.5144              -53.73         0.0987          8.672          41.17         -5.685         -8.547          173.6          84.04          106.6          65.32          70.11
    0.5612              -53.72         0.1013          8.688          41.17         -5.684         -8.545          173.6          84.04          106.6           65.3          70.12
     0.608               -53.7         0.1041          8.705          41.18         -5.683         -8.542          173.6          84.04          106.7          65.28          70.13
    0.6547              -53.69         0.1071          8.724          41.18         -5.683         -8.539          173.5          84.04          106.7          65.26          70.14
    0.7015              -53.67         0.1104          8.745          41.18         -5.682         -8.535          173.5          84.03          106.7          65.24          70.16
    0.7483              -53.65         0.1139          8.767          41.19         -5.681         -8.532          173.5          84.03          106.7          65.21          70.17
     0.795              -53.64         0.1178          8.791          41.19          -5.68         -8.528          173.4          84.03          106.7          65.18          70.19
    0.8418              -53.62         0.1221          8.818           41.2         -5.679         -8.523          173.4          84.02          106.7          65.15          70.21
    0.8886              -53.59         0.1267          8.847           41.2         -5.678         -8.518          173.3          84.02          106.7          65.12          70.22
    0.9353              -53.57         0.1318          8.879          41.21         -5.677         -8.513          173.3          84.01          106.7          65.09          70.24
    0.9821              -53.54         0.1374          8.914          41.21         -5.675         -8.507          173.2          84.01          106.7          65.05          70.27
     1.029              -53.51         0.1436          8.953          41.22         -5.674         -8.501          173.2           84.0          106.8          65.01          70.29
     1.076              -53.48         0.1505          8.996          41.23         -5.672         -8.494          173.1           84.0          106.8          64.96          70.32
     1.122              -53.44         0.1581          9.043          41.23          -5.67         -8.486          173.0          83.99          106.8          64.91          70.35
     1.169               -53.4         0.1666          9.097          41.24         -5.668         -8.477          172.9          83.99          106.8          64.85          70.39
     1.216              -53.35         0.1761          9.156          41.25         -5.666         -8.468          172.8          83.98          106.8          64.78          70.42
     1.263               -53.3         0.1869          9.223          41.26         -5.663         -8.456          172.7          83.97          106.9          64.71          70.47
     1.309              -53.24          0.199          9.299          41.28          -5.66         -8.444          172.6          83.96          106.9          64.62          70.52
     1.356              -53.18         0.2127          9.385          41.29         -5.657          -8.43          172.5          83.95          106.9          64.53          70.57
     1.403               -53.1         0.2284          9.484          41.31         -5.653         -8.414          172.3          83.93          107.0          64.42          70.64
      1.45              -53.02         0.2465          9.596          41.33         -5.649         -8.395          172.1          83.92          107.0          64.29          70.71
     1.497              -52.92         0.2673          9.727          41.35         -5.643         -8.374          171.9           83.9          107.1          64.15          70.79
     1.543               -52.8         0.2915          9.878          41.37         -5.638         -8.349          171.7          83.88          107.1          63.98          70.89
      1.59              -52.66         0.3197          10.06           41.4         -5.631          -8.32          171.4          83.85          107.2          63.78          71.01
     1.637               -52.5         0.3531          10.26          41.44         -5.623         -8.285          171.1          83.83          107.3          63.55          71.14
     1.684              -52.31         0.3927          10.51          41.48         -5.613         -8.244          170.7          83.79          107.4          63.28           71.3
      1.73              -52.08         0.4402          10.81          41.53         -5.601         -8.195          170.2          83.75          107.5          62.95          71.49
     1.777              -51.81         0.4977          11.17          41.59         -5.587         -8.136          169.6           83.7          107.7          62.55          71.73
     1.824              -51.47         0.5679          11.61          41.66          -5.57         -8.064          168.9          83.64          107.8          62.06          72.01
     1.871              -51.05         0.6546          12.15          41.75         -5.549         -7.975          168.0          83.57          108.0          61.46          72.36
     1.917              -50.53         0.7627          12.83          41.87         -5.523         -7.863          167.0          83.48          108.3          60.71           72.8
     1.964              -49.87         0.8988          13.68          42.01         -5.489         -7.723          165.6          83.36          108.7          59.77          73.35
     2.011              -49.04          1.072          14.76          42.19         -5.447         -7.545          163.9          83.21          109.1          58.57          74.05
     2.058              -47.97          1.293          16.15          42.42         -5.393         -7.317          161.6          83.02          109.7          57.03          74.95
     2.104              -46.61          1.578          17.93          42.72         -5.324         -7.024          158.8          82.78          110.4          55.06           76.1
     2.151              -44.86          1.941           20.2           43.1         -5.235          -6.65          155.2          82.47          111.3          52.54          77.57
     2.198              -42.66          2.397          23.06          43.57         -5.124         -6.179          150.6          82.08          112.5          49.38          79.42
     2.245              -39.98          2.954          26.54          44.16         -4.988         -5.606          145.0           81.6          113.9          45.52          81.67
     2.292              -36.87          3.598          30.57          44.83         -4.831         -4.942          138.6          81.05          115.5          41.05          84.28
     2.338              -33.51          4.297          34.94          45.56         -4.661         -4.222          131.6          80.45          117.3           36.2          87.11
     2.385              -30.15          4.995          39.31          46.29          -4.49         -3.503          124.6          79.86          119.1          31.36          89.94
     2.432              -27.04           5.64          43.35          46.96         -4.333         -2.839          118.1           79.3          120.7          26.89          92.55
     2.479              -24.36          6.196          46.83          47.55         -4.197         -2.265          112.5          78.83          122.1          23.03           94.8
     2.525              -22.17          6.653          49.69          48.02         -4.086         -1.795          108.0          78.44          123.3          19.87          96.65
     2.572              -20.42          7.016          51.96           48.4         -3.997         -1.421          104.3          78.13          124.2          17.35          98.12
     2.619              -19.05            7.3          53.74           48.7         -3.928         -1.128          101.5          77.88          124.9          15.38          99.27
     2.666              -17.98          7.521          55.12          48.93         -3.874           -0.9          99.27          77.69          125.5          13.84          100.2
     2.712              -17.15          7.695          56.21          49.11         -3.832        -0.7217          97.53          77.55          125.9          12.64          100.9
     2.759              -16.49          7.831          57.06          49.26         -3.798        -0.5814          96.17          77.43          126.3           11.7          101.4
     2.806              -15.97          7.939          57.74          49.37         -3.772        -0.4701          95.09          77.34          126.6          10.95          101.9
     2.853              -15.55          8.025          58.28          49.46         -3.751        -0.3808          94.22          77.26          126.8          10.35          102.2
       2.9              -15.22          8.096          58.72          49.53         -3.734        -0.3085          93.52           77.2          127.0          9.859          102.5
     2.946              -14.94          8.153          59.08          49.59          -3.72        -0.2493          92.94          77.15          127.1          9.461          102.7
     2.993              -14.71          8.201          59.37          49.64         -3.708        -0.2003          92.47          77.11          127.2          9.131          102.9
